<mxfile host="app.diagrams.net" modified="2023-05-26T04:53:35.806Z" agent="Mozilla/5.0 (Windows NT 10.0; Win64; x64) AppleWebKit/537.36 (KHTML, like Gecko) Chrome/113.0.0.0 Safari/537.36" version="21.3.4" etag="H2ZRGnhs4IoJ_ks23cqu" type="github">
  <diagram name="페이지-1" id="Txm1GUmn1d5pyy7bxbOI">
    <mxGraphModel>
      <root>
        <mxCell id="0" />
        <mxCell id="1" parent="0" />
      </root>
    </mxGraphModel>
  </diagram>
</mxfile>
